<?xml version="1.0" encoding="UTF-8"?>
<svg width="24px" height="24px" viewBox="0 0 24 24" version="1.1" xmlns="http://www.w3.org/2000/svg" xmlns:xlink="http://www.w3.org/1999/xlink">
    <title>SortDescending</title>
    <g id="SortDescending" stroke="none" stroke-width="1" fill="none" fill-rule="evenodd">
        <g id="calendar-today-24px">
            <polygon id="Path" points="0 0 24 0 24 24 0 24"></polygon>
            <path d="M20,3 L19,3 L19,1 L17,1 L17,3 L7,3 L7,1 L5,1 L5,3 L4,3 C2.9,3 2,3.9 2,5 L2,21 C2,22.1 2.9,23 4,23 L20,23 C21.1,23 22,22.1 22,21 L22,5 C22,3.9 21.1,3 20,3 Z M20,21 L4,21 L4,8 L20,8 L20,21 Z" id="Shape" fill="#000000" fill-rule="nonzero"></path>
        </g>
        <path id="Line-2" d="M13,9 L13,18.091 L16.5642122,11.7548694 L16.8093429,11.3190816 L17.6809184,11.8093429 L17.4357878,12.2451306 L12.9357878,20.2451306 L12.5,21.0198644 L12.0642122,20.2451306 L7.56421223,12.2451306 L7.31908161,11.8093429 L8.19065715,11.3190816 L8.43578777,11.7548694 L12,18.091 L12,9 L13,9 Z" fill="#000000" fill-rule="nonzero"></path>
    </g>
</svg>