<?xml version="1.0" encoding="UTF-8"?>
<svg width="24px" height="24px" viewBox="0 0 24 24" version="1.1" xmlns="http://www.w3.org/2000/svg" xmlns:xlink="http://www.w3.org/1999/xlink">
    <title>SortAscending</title>
    <g id="SortAscending" stroke="none" stroke-width="1" fill="none" fill-rule="evenodd">
        <g id="calendar-today-24px" transform="translate(0.500000, 0.000000)">
            <polygon id="Path" points="0 0 24 0 24 24 0 24"></polygon>
            <path d="M20,3 L19,3 L19,1 L17,1 L17,3 L7,3 L7,1 L5,1 L5,3 L4,3 C2.9,3 2,3.9 2,5 L2,21 C2,22.1 2.9,23 4,23 L20,23 C21.1,23 22,22.1 22,21 L22,5 C22,3.9 21.1,3 20,3 Z M20,21 L4,21 L4,8 L20,8 L20,21 Z" id="Shape" fill="#000000" fill-rule="nonzero"></path>
        </g>
        <path id="Line" d="M12.5,8.98013557 L12.9357878,9.75486938 L17.4357878,17.7548694 L17.6809184,18.1906571 L16.8093429,18.6809184 L16.5642122,18.2451306 L13,11.908 L13,23 L12,23 L12,11.908 L8.43578777,18.2451306 L8.19065715,18.6809184 L7.31908161,18.1906571 L7.56421223,17.7548694 L12.0642122,9.75486938 L12.5,8.98013557 Z" fill="#000000" fill-rule="nonzero"></path>
    </g>
</svg>